# xmcd
#
# Track frame offsets: 
#        150
#        12595
#        27774
#        38628
#        47824
#        59493
#        74005
#        84216
#        94325
#        107318
#        116238
#        125663
#        137893
#        148965
#        160270
#        169346
#        179714
#        190464
#        201344
#        213116
#        223482
#        234669
#        246670
#        257580
#        268347
#
# Disc length: 3702 seconds
#
# Revision: 3
# Processed by: cddbd v1.5.2PL0 Copyright (c) Steve Scherf et al.
# Submitted via: ExactAudioCopyFreeDBPlugin 1.0
#
DISCID=970e7419
DTITLE=Various Artist - Northern Soul:  The Early Years [Real Gone Mu
DTITLE=sic]
DYEAR=2015
DGENRE=Soul
TTITLE0=Johnnie Taylor - Rome (Wasn't Built in a Day)
TTITLE1=Chuck Jackson - Any Day Now
TTITLE2=Tony Clarke - Cry
TTITLE3=Ed Townsend - Cherrigale
TTITLE4=The Supremes - Your Heart Belongs to Me
TTITLE5=Mitty Collier - I Gotta Get Away from it All
TTITLE6=Irma Thomas - Don't Mess with My Man
TTITLE7=Billy Bland - My Heart's on Fire
TTITLE8=Mary Wells - Bye Bye Baby
TTITLE9=The Tams - Disillusioned
TTITLE10=Maxine Brown - Am I Falling in Love
TTITLE11=Ted Taylor - I Lost the Best Things I Ever Had
TTITLE12=Dean Barlow - Third Window from the Right
TTITLE13=Little Eva - Keep Your Hands Off My Baby
TTITLE14=Betty O'Brian - She'll Be Gone
TTITLE15=Johnny Nash - Some of Your Lovin'
TTITLE16=The Marvelettes - Way Over There
TTITLE17=The O'Jays - Miracles
TTITLE18=Bobby "Blue" Bland - Turn on Your Love Light
TTITLE19=Wilson Pickett - My Heart Belongs to You
TTITLE20=The Majors - She's a Troublemaker
TTITLE21=Big Al Downing - The Story of My Life
TTITLE22=Tammy Montgomery (Tammi Terrell) - It's Mine
TTITLE23=Russell Byrd - You Better Come Home
TTITLE24=Major Lance - Everytime
EXTD=
EXTT0=
EXTT1=
EXTT2=
EXTT3=
EXTT4=
EXTT5=
EXTT6=
EXTT7=
EXTT8=
EXTT9=
EXTT10=
EXTT11=
EXTT12=
EXTT13=
EXTT14=
EXTT15=
EXTT16=
EXTT17=
EXTT18=
EXTT19=
EXTT20=
EXTT21=
EXTT22=
EXTT23=
EXTT24=
PLAYORDER=
